<svg xmlns="http://www.w3.org/2000/svg" width="20.034" height="18.469" viewBox="0 0 20.034 18.469">
  <g id="Layer_2" data-name="Layer 2" transform="translate(-2 -3.014)">
    <path id="Path_13" data-name="Path 13" d="M12,16a3,3,0,1,0-3-3A3,3,0,0,0,12,16Zm0-4a1,1,0,1,1-1,1A1,1,0,0,1,12,12Z" transform="translate(0.001 0.001)" fill="#fff"/>
    <path id="Path_14" data-name="Path 14" d="M10.511,9.291a4,4,0,0,1,3,0l.93.37,2.2-5.561-.92-.37a10,10,0,0,0-7.432,0l-.92.38L9.58,9.661Zm3.511-4-.75,1.88a6,6,0,0,0-2.541,0L10,5.26a8,8,0,0,1,4,0Z" transform="translate(0.001)" fill="#fff"/>
    <path id="Path_15" data-name="Path 15" d="M3.34,18a9.792,9.792,0,0,0,2.491,2.861l.78.61,3.711-4.7-.78-.62A4,4,0,0,1,8,13.56l-.15-1L2,13.43l.14,1A9.792,9.792,0,0,0,3.34,18ZM6.291,14.83A5.9,5.9,0,0,0,6.8,16a6,6,0,0,0,.75,1l-1.24,1.62a8,8,0,0,1-2-3.5Z" transform="translate(0 0.002)" fill="#fff"/>
    <path id="Path_16" data-name="Path 16" d="M16.1,12.58l-.15,1a4,4,0,0,1-1.49,2.581l-.78.62,3.711,4.7.78-.61a9.912,9.912,0,0,0,3.721-6.441l.14-1ZM18.931,17a7.881,7.881,0,0,1-1.23,1.62L16.441,17a6,6,0,0,0,.75-1,5.9,5.9,0,0,0,.52-1.17l2,.29a7.852,7.852,0,0,1-.78,1.88Z" transform="translate(0.002 0.002)" fill="#fff"/>
  </g>
</svg>
